<?xml version="1.0" encoding="utf-8"?>
<!-- Generator: Adobe Illustrator 27.0.0, SVG Export Plug-In . SVG Version: 6.00 Build 0)  -->
<svg version="1.1" id="Capa_1" xmlns="http://www.w3.org/2000/svg" xmlns:xlink="http://www.w3.org/1999/xlink" x="0px" y="0px"
	 viewBox="0 0 512 512" style="enable-background:new 0 0 512 512;" xml:space="preserve">
<style type="text/css">
	.st0{fill:#F7961D;}
</style>
<g>
	<g>
		<path class="st0" d="M357.5,339.1c-5.8,0-10.4,4.7-10.4,10.4v46.5h-255V75.5h255v48.1c0,5.8,4.7,10.4,10.4,10.4
			c5.8,0,10.4-4.7,10.4-10.4V10.4C368,4.7,363.3,0,357.5,0H81.6c-5.8,0-10.4,4.7-10.4,10.4v491.1c0,5.8,4.7,10.4,10.4,10.4h275.9
			c5.8,0,10.4-4.7,10.4-10.4v-152C368,343.8,363.3,339.1,357.5,339.1z M347.1,20.9v33.7h-255V20.9H347.1z M92.1,491.1V417h255v74.1
			H92.1z"/>
		<ellipse class="st0" cx="219.7" cy="453.3" rx="15.8" ry="15.8"/>
		<path class="st0" d="M271.4,260.3c-2-5.4-8-8.2-13.4-6.2l-6.7,2.5c-1-1.6-2-3.1-3.2-4.5l4.6-5.5c3.7-4.4,3.1-11-1.3-14.7
			c-4.4-3.7-11-3.1-14.7,1.4l-4.6,5.5c-1.6-0.9-3.3-1.6-5-2.3l1.2-7c1-5.7-2.8-11.1-8.5-12.1c-5.7-1-11.1,2.8-12.1,8.5l-1.2,7
			c-1.9,0.1-3.7,0.2-5.5,0.5l-2.5-6.7c-2-5.4-8-8.2-13.4-6.2c-5.4,2-8.2,8-6.2,13.4l2.5,6.7c-1.6,1-3.1,2-4.5,3.2l-5.5-4.6
			c-4.4-3.7-11-3.1-14.7,1.3c-3.7,4.4-3.1,11,1.3,14.7l5.5,4.6c-0.9,1.6-1.6,3.3-2.3,5l-7-1.2c-5.7-1-11.1,2.8-12.1,8.5v0l0,0
			c-1,5.7,2.8,11.1,8.5,12.1l7,1.2c0.1,1.9,0.2,3.7,0.5,5.5l-6.7,2.5c-5.4,2-8.2,8-6.2,13.4c2,5.4,8,8.2,13.4,6.2l6.7-2.5
			c1,1.6,2,3.1,3.2,4.5l-4.6,5.5c-3.7,4.4-3.1,11,1.3,14.7c4.4,3.7,11,3.1,14.7-1.3l4.6-5.5c1.6,0.9,3.3,1.6,5,2.3l-1.2,7
			c-1,5.7,2.8,11.1,8.5,12.1c5.7,1,11.1-2.8,12.1-8.5l1.2-7c1.9-0.1,3.7-0.2,5.5-0.5l2.5,6.7c2,5.4,8,8.2,13.4,6.2
			c5.4-2,8.2-8,6.2-13.4l-2.5-6.7c1.6-1,3.1-2,4.5-3.2l5.5,4.6c4.4,3.7,11,3.1,14.7-1.3c3.7-4.4,3.1-11-1.3-14.7l-5.5-4.6
			c0.9-1.6,1.6-3.3,2.3-5l7,1.2c5.7,1,11.1-2.8,12.1-8.5l0,0l0,0c1-5.7-2.8-11.1-8.5-12.1l-7-1.2c-0.1-1.9-0.2-3.7-0.5-5.5l6.7-2.5
			C270.6,271.7,273.4,265.7,271.4,260.3z M237.7,288.7L237.7,288.7c-2.8,16.2-18.3,27.2-34.5,24.4c-16.2-2.8-27.2-18.3-24.4-34.5v0
			l0,0c2.8-16.3,18.3-27.2,34.5-24.4C229.6,256.9,240.5,272.4,237.7,288.7L237.7,288.7z"/>
		<path class="st0" d="M430.4,225.3h-11.6c-0.7-3.9-1.7-7.6-3-11.2l10-5.8c5-2.9,6.7-9.3,3.8-14.3c-2.9-5-9.3-6.7-14.3-3.8
			l-10.1,5.8c-2.5-3-5.2-5.7-8.1-8.2l5.8-10.1c2.9-5,1.2-11.4-3.8-14.3c-5-2.9-11.4-1.2-14.3,3.8l-5.8,10.1c-3.6-1.3-7.3-2.3-11.1-3
			v-11.6c0-5.8-4.7-10.4-10.4-10.4c-5.8,0-10.5,4.7-10.5,10.4v11.6c-3.8,0.7-7.6,1.6-11.1,3l-5.8-10.1c-2.9-5-9.3-6.7-14.3-3.8
			c-5,2.9-6.7,9.3-3.8,14.3l5.8,10.1c-3,2.5-5.7,5.2-8.1,8.2l-10.1-5.8c-5-2.9-11.4-1.2-14.3,3.8c-2.9,5-1.2,11.4,3.8,14.3l10,5.8
			c-1.3,3.6-2.3,7.3-3,11.2h-11.6c-5.8,0-10.4,4.7-10.4,10.4l0,0l0,0c0,5.8,4.7,10.4,10.4,10.4h11.6c0.7,3.9,1.7,7.6,3,11.2l-10,5.8
			c-5,2.9-6.7,9.3-3.8,14.3c2.9,5,9.3,6.7,14.3,3.8l10.1-5.8c2.5,3,5.2,5.7,8.1,8.2l-5.8,10.1c-2.9,5-1.2,11.4,3.8,14.3
			c5,2.9,11.4,1.2,14.3-3.8l5.8-10.1c3.6,1.3,7.3,2.3,11.1,3v11.6c0,5.8,4.7,10.4,10.5,10.4c5.8,0,10.4-4.7,10.4-10.4V297
			c3.8-0.7,7.6-1.6,11.1-3l5.8,10.1c2.9,5,9.3,6.7,14.3,3.8c5-2.9,6.7-9.3,3.8-14.3l-5.8-10.1c3-2.5,5.7-5.2,8.1-8.2l10.1,5.8
			c5,2.9,11.4,1.2,14.3-3.8c2.9-5,1.2-11.4-3.8-14.3l-10-5.8c1.3-3.6,2.3-7.3,3-11.2h11.6c5.8,0,10.4-4.7,10.4-10.4l0,0l0,0
			C440.8,229.9,436.1,225.3,430.4,225.3z M398.8,235.7L398.8,235.7c0,22.8-18.5,41.3-41.2,41.3c-22.7,0-41.2-18.5-41.2-41.3l0,0l0,0
			c0-22.8,18.5-41.3,41.2-41.3C380.3,194.4,398.8,212.9,398.8,235.7L398.8,235.7z"/>
	</g>
</g>
</svg>
