<?xml version="1.0" encoding="utf-8"?>
<!-- Generator: Adobe Illustrator 27.0.0, SVG Export Plug-In . SVG Version: 6.00 Build 0)  -->
<svg version="1.1" id="Capa_1" xmlns="http://www.w3.org/2000/svg" xmlns:xlink="http://www.w3.org/1999/xlink" x="0px" y="0px"
	 viewBox="0 0 512 512" style="enable-background:new 0 0 512 512;" xml:space="preserve">
<style type="text/css">
	.st0{fill:#F7961D;}
</style>
<g>
	<g>
		<path class="st0" d="M393.1,427.3h-55.8c-2,0-3.7-1.6-3.7-3.7v-13.6c0-2-1.6-3.7-3.7-3.7h-78.1c-2,0-3.7,1.6-3.7,3.7v13.6
			c0,2-1.6,3.7-3.7,3.7h-42c-2,0-3.7,1.6-3.7,3.7v15.7c0,2,1.6,3.7,3.7,3.7h190.5c2,0,3.7-1.6,3.7-3.7V431
			C396.8,428.9,395.1,427.3,393.1,427.3z"/>
		<g>
			<path class="st0" d="M486.9,59.9H88.6c-13.9,0-25.1,11.3-25.1,25.1c0,0,0,47.9,0,65.5c0,8.7-0.6,9.9,5.2,9.9c3.1,0,6.5,0,10,0
				c4.9,0,3.9-1.2,3.9-10.1c0-17.6,0-65.4,0-65.4c0-3.3,2.8-6.1,6.1-6.1h398.2c3.3,0,6.1,2.8,6.1,6.1v245.3H209.1c0,0-10,0-10,12.9
				c0,7.7,0,23,0,30.7c0,12.9,10.3,12.9,10.3,12.9h277.5c13.9,0,25.1-11.3,25.1-25.1V85C512,71.2,500.7,59.9,486.9,59.9z
				 M287.7,365.2c-6.3,0-11.3-5.1-11.3-11.3c0-6.3,5.1-11.3,11.3-11.3c6.2,0,11.3,5.1,11.3,11.3S294,365.2,287.7,365.2z"/>
			<path class="st0" d="M160.3,182.9H16.2c-8.9,0-16.2,7.3-16.2,16.2v236.8c0,8.9,7.3,16.2,16.2,16.2h144.1
				c8.9,0,16.2-7.3,16.2-16.2V199.1C176.5,190.2,169.2,182.9,160.3,182.9z M70.5,199.4H106c1.7,0,3.1,1.4,3.1,3.1
				c0,1.7-1.4,3.1-3.1,3.1H70.5c-1.7,0-3.1-1.4-3.1-3.1C67.4,200.8,68.8,199.4,70.5,199.4z M88,440.7c-4.6,0-8.4-3.8-8.4-8.4
				s3.8-8.4,8.4-8.4s8.4,3.8,8.4,8.4S92.7,440.7,88,440.7z M162.6,416.1c0,2.2-1.7,3.9-3.8,3.9H17.8c-2.1,0-3.8-1.8-3.8-3.9V219.3
				c0-2.2,1.7-3.9,3.8-3.9h140.9c2.1,0,3.8,1.8,3.8,3.9C162.6,219.3,162.6,416.1,162.6,416.1z"/>
		</g>
	</g>
</g>
</svg>
