<?xml version="1.0" encoding="utf-8"?>
<!-- Generator: Adobe Illustrator 27.0.0, SVG Export Plug-In . SVG Version: 6.00 Build 0)  -->
<svg version="1.1" id="Layer_1" xmlns="http://www.w3.org/2000/svg" xmlns:xlink="http://www.w3.org/1999/xlink" x="0px" y="0px"
	 viewBox="0 0 512 512" style="enable-background:new 0 0 512 512;" xml:space="preserve">
<style type="text/css">
	.st0{fill:#F7961D;}
</style>
<g>
	<g>
		<g>
			<path class="st0" d="M501.6,31.3H10.4C4.7,31.3,0,36,0,41.8V402c0,5.8,4.7,10.4,10.4,10.4h189.7l-7.1,47.3h-30.2
				c-5.8,0-10.4,4.7-10.4,10.4c0,5.8,4.7,10.4,10.4,10.4H202h108h0h39.2c5.8,0,10.4-4.7,10.4-10.4c0-5.8-4.7-10.4-10.4-10.4H319
				l-7.1-47.3h189.7c5.8,0,10.4-4.7,10.4-10.4V41.8C512,36,507.3,31.3,501.6,31.3z M214.2,459.8l7.1-47.3h69.4l7.1,47.3H214.2z
				 M491.1,336.5c-1.9-1.9-4.5-3.1-7.4-3.1h-38.3c-5.8,0-10.4,4.7-10.4,10.4c0,5.8,4.7,10.4,10.4,10.4h38.3c2.9,0,5.5-1.2,7.4-3.1
				v40.4H299.7l0,0h-87.4H20.9v-37.3h392.3c5.8,0,10.4-4.7,10.4-10.4s-4.7-10.4-10.4-10.4H20.9V52.2h470.2L491.1,336.5L491.1,336.5z
				"/>
		</g>
	</g>
	<g>
		<g>
			<path class="st0" d="M291.7,183.8l-51.5-29.7c-3.2-1.9-7.2-1.9-10.4,0c-3.2,1.9-5.2,5.3-5.2,9v59.4c0,3.7,2,7.2,5.2,9
				c1.6,0.9,3.4,1.4,5.2,1.4c1.8,0,3.6-0.5,5.2-1.4l51.5-29.7c3.2-1.9,5.2-5.3,5.2-9.1C296.9,189.1,294.9,185.6,291.7,183.8z
				 M245.4,204.4v-23.2l20.1,11.6L245.4,204.4z"/>
		</g>
	</g>
	<g>
		<g>
			<path class="st0" d="M333.9,103.2H178.1c-18.6,0-33.7,15.1-33.7,33.7v111.8c0,18.6,15.1,33.7,33.7,33.7h155.9
				c18.6,0,33.7-15.1,33.7-33.7V136.9C367.7,118.3,352.5,103.2,333.9,103.2z M333.9,261.5H178.1c-7.1,0-12.8-5.7-12.8-12.8V136.9
				c0-7.1,5.8-12.8,12.8-12.8h155.9c7.1,0,12.8,5.7,12.8,12.8v111.8h0C346.8,255.8,341,261.5,333.9,261.5z"/>
		</g>
	</g>
	<g>
		<g>
			<path class="st0" d="M58.4,141.1c-5.8,0-10.4,4.7-10.4,10.4v149.4c0,5.8,4.7,10.4,10.4,10.4s10.4-4.7,10.4-10.4V151.5
				C68.8,145.7,64.1,141.1,58.4,141.1z"/>
		</g>
	</g>
	<g>
		<g>
			<path class="st0" d="M58.4,85.9c-5.8,0-10.4,4.7-10.4,10.4V120c0,5.8,4.7,10.4,10.4,10.4s10.4-4.7,10.4-10.4V96.3
				C68.8,90.5,64.1,85.9,58.4,85.9z"/>
		</g>
	</g>
</g>
</svg>
